<svg xmlns="http://www.w3.org/2000/svg"><style>:root svg:not(:target){display:none}</style><svg viewBox="0 0 30 30" fill="none" id="burger"><path d="M6.25 8.75h17.5M6.25 15h12.5m-12.5 6.25h7.5" stroke="#372E11" stroke-width="2" stroke-linecap="round"></path></svg><svg fill="none" id="check" viewBox="0 0 12 8"><path fill-rule="evenodd" clip-rule="evenodd" d="M11.025.641a.625.625 0 0 1 0 .884L5.192 7.36a.625.625 0 0 1-.884 0L.975 4.025a.625.625 0 1 1 .883-.884L4.75 6.033 10.14.64a.625.625 0 0 1 .884 0z" fill="#fff"></path></svg><svg id="cross" viewBox="0 0 25 25"><path d="M3.966 3.567 21.401 21.78m-17.435 0L21.401 3.568" fill="#372E11" stroke="#372E11" stroke-width="3.232" stroke-linecap="round"></path></svg><svg viewBox="0 0 19 15" fill="none" id="email"><path d="M4.454.204a54.397 54.397 0 0 1 9.421 0l1.51.132a2.888 2.888 0 0 1 2.313 1.544.235.235 0 0 1-.09.308l-6.267 3.88a4.25 4.25 0 0 1-4.399.044L.634 2.385a.236.236 0 0 1-.103-.293A2.889 2.889 0 0 1 2.943.336l1.51-.132z" fill="#000"></path><path d="M.526 4.064a.248.248 0 0 0-.373.187 30.351 30.351 0 0 0 .184 7.56 2.888 2.888 0 0 0 2.606 2.447l1.51.131c3.135.273 6.288.273 9.422 0l1.51-.131a2.888 2.888 0 0 0 2.606-2.448 30.35 30.35 0 0 0 .162-7.779.247.247 0 0 0-.378-.183l-5.644 3.495a5.75 5.75 0 0 1-5.952.06L.526 4.064z" fill="#000"></path></svg></svg>