<svg viewBox="0 0 19 15" fill="none" xmlns="http://www.w3.org/2000/svg"><path d="M4.454.204a54.397 54.397 0 019.421 0l1.51.132a2.888 2.888 0 012.313 1.544.235.235 0 01-.09.308l-6.267 3.88a4.25 4.25 0 01-4.399.044L.634 2.385a.236.236 0 01-.103-.293A2.889 2.889 0 012.943.336l1.51-.132z" fill="#000"/><path d="M.526 4.064a.248.248 0 00-.373.187 30.351 30.351 0 00.184 7.56 2.888 2.888 0 002.606 2.447l1.51.131c3.135.273 6.288.273 9.422 0l1.51-.131a2.888 2.888 0 002.606-2.448 30.35 30.35 0 00.162-7.779.247.247 0 00-.378-.183l-5.644 3.495a5.75 5.75 0 01-5.952.06L.526 4.064z" fill="#000"/></svg>
